<svg width="42" height="42" viewBox="0 0 42 42" fill="none" xmlns="http://www.w3.org/2000/svg">
<circle cx="21" cy="21" r="20.5" fill="white" stroke="#E95639"/>
<path d="M31.2806 18.9702L23.7806 11.4702C23.6757 11.3653 23.5421 11.2938 23.3967 11.2647C23.2512 11.2357 23.1004 11.2505 22.9633 11.3072C22.8262 11.3639 22.709 11.46 22.6265 11.5833C22.5441 11.7066 22.5 11.8516 22.4999 11.9999V15.7827C20.0681 15.9908 17.3821 17.1815 15.1724 19.0555C12.5118 21.313 10.8553 24.2221 10.5074 27.2465C10.4803 27.4816 10.5279 27.7193 10.6437 27.9258C10.7594 28.1322 10.9373 28.2969 11.1521 28.3964C11.3669 28.4959 11.6076 28.5251 11.8399 28.4799C12.0723 28.4347 12.2844 28.3174 12.4462 28.1446C13.4774 27.0468 17.1468 23.5752 22.4999 23.2696V26.9999C22.5 27.1482 22.5441 27.2932 22.6265 27.4165C22.709 27.5398 22.8262 27.6359 22.9633 27.6926C23.1004 27.7493 23.2512 27.7641 23.3967 27.7351C23.5421 27.706 23.6757 27.6345 23.7806 27.5296L31.2806 20.0296C31.4208 19.889 31.4996 19.6985 31.4996 19.4999C31.4996 19.3013 31.4208 19.1108 31.2806 18.9702ZM23.9999 25.1896V22.4999C23.9999 22.301 23.9209 22.1102 23.7803 21.9696C23.6396 21.8289 23.4489 21.7499 23.2499 21.7499C20.6174 21.7499 18.0534 22.4371 15.629 23.7936C14.3943 24.4876 13.2438 25.3219 12.2006 26.2799C12.7443 24.0449 14.1149 21.9196 16.1428 20.1993C18.3196 18.3533 20.9765 17.2499 23.2499 17.2499C23.4489 17.2499 23.6396 17.1709 23.7803 17.0302C23.9209 16.8896 23.9999 16.6988 23.9999 16.4999V13.8111L29.6896 19.4999L23.9999 25.1896Z" fill="#E95639"/>
</svg>
