<svg width="42" height="42" viewBox="0 0 42 42" fill="none" xmlns="http://www.w3.org/2000/svg">
<circle cx="21" cy="21" r="20.5" fill="white" stroke="#E95639"/>
<path d="M22.8448 10.0186C21.2052 10.0186 19.8137 10.5262 18.8761 11.5449C17.9385 12.5636 17.4991 14.0164 17.4991 15.75V17.5H15.7589C14.7951 17.5 13.9993 18.3024 14.0089 19.2666L14.0235 20.7686V20.7695C14.0348 21.7203 14.8237 22.5028 15.7755 22.502L17.5001 22.501V30.75C17.5001 31.7075 18.2926 32.5 19.2501 32.5H21.2501C22.2076 32.5 23.0001 31.7075 23.0001 30.75V22.5H24.5479C25.4298 22.5 26.1838 21.8281 26.2862 20.9521L26.461 19.4521C26.5803 18.4254 25.7569 17.5 24.7227 17.5H23.0099L23.0313 15.8564C23.0314 15.8532 23.0314 15.8499 23.0313 15.8467C23.0313 15.5038 23.2919 15.2432 23.6349 15.2432H25.089C25.868 15.2432 26.5157 14.5955 26.5157 13.8164V11.5312C26.5157 10.7984 25.9456 10.1752 25.2169 10.1094H25.2149C25.0727 10.0969 24.089 10.0186 22.8448 10.0186ZM22.8448 11.5186C23.9837 11.5186 25.0067 11.6004 25.0157 11.6006V13.7432H23.6349C22.4818 13.7432 21.5313 14.6936 21.5313 15.8467L21.5001 18.2402C21.4988 18.3395 21.5173 18.4381 21.5544 18.5302C21.5915 18.6224 21.6465 18.7062 21.7163 18.7769C21.7861 18.8475 21.8692 18.9037 21.9608 18.942C22.0524 18.9803 22.1508 19 22.2501 19H24.7227C24.8856 19 24.9895 19.1181 24.9708 19.2793L24.797 20.7783C24.7814 20.9113 24.6811 21 24.5479 21H22.2501C22.0512 21 21.8604 21.079 21.7198 21.2197C21.5791 21.3603 21.5001 21.5511 21.5001 21.75V30.75C21.5001 30.8975 21.3976 31 21.2501 31H19.2501C19.1026 31 19.0001 30.8975 19.0001 30.75V21.75C19.0001 21.5511 18.921 21.3603 18.7804 21.2197C18.6397 21.079 18.449 21 18.2501 21L15.7745 21.002H15.7735C15.6289 21.0021 15.5261 20.8992 15.5235 20.7529L15.5089 19.252C15.5074 19.1042 15.6107 19 15.7589 19H18.2491C18.448 19 18.6388 18.921 18.7794 18.7803C18.9201 18.6397 18.9991 18.4489 18.9991 18.25V15.75C18.9991 14.2671 19.366 13.2292 19.9806 12.5615C20.5951 11.8938 21.5009 11.5186 22.8448 11.5186Z" fill="#E95639"/>
</svg>
