<svg width="36" height="36" viewBox="0 0 36 36" fill="none" xmlns="http://www.w3.org/2000/svg">
<rect x="0.5" y="0.5" width="35" height="35" rx="5.5" stroke="#E95639"/>
<path d="M27.6197 10.6435C27.5043 10.3768 27.313 10.1499 27.0696 9.99101C26.8263 9.83216 26.5416 9.74836 26.251 9.75002H9.75095C9.46064 9.7506 9.17673 9.8354 8.93366 9.99416C8.6906 10.1529 8.49883 10.3788 8.38161 10.6444C8.26439 10.91 8.22677 11.2039 8.2733 11.4905C8.31984 11.777 8.44853 12.0439 8.64376 12.2588L8.65126 12.2672L15.001 19.0472V26.25C15.0009 26.5215 15.0745 26.7879 15.2139 27.0208C15.3534 27.2538 15.5534 27.4445 15.7928 27.5727C16.0321 27.7008 16.3017 27.7617 16.5729 27.7486C16.844 27.7356 17.1066 27.6493 17.3325 27.4988L20.3325 25.4981C20.5382 25.3612 20.7068 25.1755 20.8234 24.9576C20.94 24.7398 21.001 24.4965 21.001 24.2494V19.0472L27.3516 12.2672L27.3591 12.2588C27.5564 12.0449 27.6863 11.7776 27.7327 11.4904C27.779 11.2031 27.7397 10.9085 27.6197 10.6435ZM19.7053 18.2419C19.5756 18.3795 19.5026 18.5609 19.501 18.75V24.2494L16.501 26.25V18.75C16.501 18.5596 16.4286 18.3762 16.2985 18.2372L9.75095 11.25H26.251L19.7053 18.2419Z" fill="#E95639"/>
</svg>
