<svg width="42" height="42" viewBox="0 0 42 42" fill="none" xmlns="http://www.w3.org/2000/svg">
<circle cx="21" cy="21" r="20.5" fill="white" stroke="#E95639"/>
<path d="M21 16.5C20.11 16.5 19.24 16.7639 18.4999 17.2584C17.7599 17.7529 17.1831 18.4557 16.8425 19.2779C16.5019 20.1002 16.4128 21.005 16.5865 21.8779C16.7601 22.7508 17.1887 23.5526 17.818 24.182C18.4474 24.8113 19.2492 25.2399 20.1221 25.4135C20.995 25.5872 21.8998 25.4981 22.7221 25.1575C23.5443 24.8169 24.2471 24.2401 24.7416 23.5001C25.2361 22.76 25.5 21.89 25.5 21C25.4988 19.8069 25.0243 18.663 24.1806 17.8194C23.337 16.9757 22.1931 16.5012 21 16.5ZM21 24C20.4067 24 19.8266 23.8241 19.3333 23.4944C18.8399 23.1648 18.4554 22.6962 18.2284 22.1481C18.0013 21.5999 17.9419 20.9967 18.0576 20.4147C18.1734 19.8328 18.4591 19.2982 18.8787 18.8787C19.2982 18.4591 19.8328 18.1734 20.4147 18.0576C20.9967 17.9419 21.5999 18.0013 22.1481 18.2284C22.6962 18.4554 23.1648 18.8399 23.4944 19.3333C23.8241 19.8266 24 20.4067 24 21C24 21.7956 23.6839 22.5587 23.1213 23.1213C22.5587 23.6839 21.7956 24 21 24ZM25.5 11.25H16.5C15.1081 11.2515 13.7736 11.8051 12.7893 12.7893C11.8051 13.7736 11.2515 15.1081 11.25 16.5V25.5C11.2515 26.8919 11.8051 28.2264 12.7893 29.2107C13.7736 30.1949 15.1081 30.7485 16.5 30.75H25.5C26.8919 30.7485 28.2264 30.1949 29.2107 29.2107C30.1949 28.2264 30.7485 26.8919 30.75 25.5V16.5C30.7485 15.1081 30.1949 13.7736 29.2107 12.7893C28.2264 11.8051 26.8919 11.2515 25.5 11.25ZM29.25 25.5C29.25 26.4946 28.8549 27.4484 28.1516 28.1516C27.4484 28.8549 26.4946 29.25 25.5 29.25H16.5C15.5054 29.25 14.5516 28.8549 13.8483 28.1516C13.1451 27.4484 12.75 26.4946 12.75 25.5V16.5C12.75 15.5054 13.1451 14.5516 13.8483 13.8483C14.5516 13.1451 15.5054 12.75 16.5 12.75H25.5C26.4946 12.75 27.4484 13.1451 28.1516 13.8483C28.8549 14.5516 29.25 15.5054 29.25 16.5V25.5ZM27 16.125C27 16.3475 26.934 16.565 26.8104 16.75C26.6868 16.935 26.5111 17.0792 26.3055 17.1644C26.1 17.2495 25.8738 17.2718 25.6555 17.2284C25.4373 17.185 25.2368 17.0778 25.0795 16.9205C24.9222 16.7632 24.815 16.5627 24.7716 16.3445C24.7282 16.1262 24.7505 15.9 24.8356 15.6945C24.9208 15.4889 25.065 15.3132 25.25 15.1896C25.435 15.066 25.6525 15 25.875 15C26.1734 15 26.4595 15.1185 26.6705 15.3295C26.8815 15.5405 27 15.8266 27 16.125Z" fill="#E95639"/>
</svg>
