<svg width="22" height="22" viewBox="0 0 22 22" fill="none" xmlns="http://www.w3.org/2000/svg">
<path d="M18.3846 18.3855L16.8678 18.7919L15.9723 15.4498C16.6806 15.0951 17.2449 14.507 17.5701 13.7847C17.8952 13.0624 17.9613 12.2501 17.7573 11.4847C16.6745 7.44561 14.4246 3.90326 14.3292 3.75459C14.2516 3.63326 14.1379 3.53938 14.004 3.48618C13.8702 3.43298 13.723 3.42316 13.5833 3.45811L11.7047 3.92818C11.7047 3.2192 11.6892 2.77404 11.6866 2.71818C11.6798 2.57049 11.6255 2.42895 11.5318 2.31455C11.4382 2.20015 11.3101 2.11898 11.1667 2.08311L8.41672 1.39561C8.277 1.36066 8.12983 1.37048 7.99599 1.42368C7.86215 1.47688 7.74839 1.57077 7.67078 1.69209C7.57539 1.84076 5.32555 5.38139 4.24273 9.42647C4.03866 10.1919 4.10478 11.0042 4.42993 11.7265C4.75508 12.4488 5.31938 13.0369 6.02766 13.3916L5.13219 16.7294L3.61539 16.323C3.43921 16.2758 3.2515 16.3005 3.09356 16.3917C2.93562 16.4829 2.82038 16.6332 2.7732 16.8094C2.72602 16.9855 2.75076 17.1732 2.84198 17.3312C2.9332 17.4891 3.08343 17.6044 3.25961 17.6515L7.38461 18.7567C7.44268 18.772 7.50246 18.7798 7.5625 18.7799C7.72944 18.7801 7.89074 18.7195 8.01631 18.6095C8.14187 18.4995 8.22313 18.3476 8.24491 18.1821C8.26669 18.0166 8.22751 17.8488 8.13467 17.7101C8.04184 17.5713 7.90169 17.4711 7.74039 17.4281L6.45992 17.0844L7.35539 13.7422C7.425 13.7465 7.49375 13.7491 7.5625 13.7491C8.24455 13.7472 8.91072 13.543 9.47671 13.1624C10.0427 12.7818 10.4831 12.2419 10.7422 11.611C10.8436 12.1584 10.9656 12.7127 11.1126 13.2627C11.3093 13.9942 11.7417 14.6404 12.3427 15.1013C12.9438 15.5623 13.68 15.8122 14.4375 15.8125C14.5063 15.8125 14.575 15.8125 14.6446 15.8056L15.5401 19.1477L14.2596 19.4915C14.0991 19.5351 13.9598 19.6355 13.8676 19.774C13.7754 19.9125 13.7366 20.0797 13.7583 20.2447C13.78 20.4096 13.8608 20.5611 13.9857 20.671C14.1106 20.7809 14.2711 20.8418 14.4375 20.8424C14.4975 20.8423 14.5573 20.8345 14.6154 20.8192L18.7404 19.714C18.9166 19.6669 19.0668 19.5516 19.158 19.3937C19.2492 19.2357 19.274 19.048 19.2268 18.8719C19.1796 18.6957 19.0644 18.5455 18.9064 18.4542C18.7485 18.363 18.5608 18.3383 18.3846 18.3855ZM13.4252 4.91475C13.6641 5.31865 14.0465 5.9924 14.4736 6.8449L11.6875 7.54271C11.6514 6.68334 11.6548 5.97436 11.666 5.49826C11.666 5.45014 11.6703 5.40201 11.6729 5.35389L13.4252 4.91475ZM8.57484 2.85225L10.3254 3.28967C10.3305 3.65748 10.3254 4.20662 10.3073 4.87693C10.3022 4.98092 10.2936 5.15107 10.2876 5.37881C10.2876 5.46475 10.279 5.55068 10.2738 5.63662L7.44992 4.93537C7.90625 4.01068 8.32219 3.27936 8.57484 2.85225ZM9.55367 10.8522C9.40588 11.3742 9.05832 11.817 8.58631 12.0846C8.1143 12.3522 7.55587 12.423 7.03201 12.2817C6.50816 12.1404 6.06108 11.7983 5.78767 11.3297C5.51426 10.861 5.43653 10.3035 5.57133 9.77795C5.90984 8.55563 6.34077 7.36081 6.86039 6.20381L10.1759 7.03225C10.0602 8.3188 9.85223 9.59539 9.55367 10.8522ZM12.4446 12.9078C12.1079 11.6059 11.8834 10.2777 11.7734 8.93748L15.0743 8.11248C15.6228 9.3179 16.0754 10.5647 16.4278 11.8413C16.5024 12.1043 16.524 12.3795 16.4913 12.651C16.4586 12.9224 16.3722 13.1846 16.2372 13.4224C16.1023 13.6601 15.9214 13.8687 15.7051 14.0359C15.4888 14.2031 15.2414 14.3257 14.9773 14.3964C14.7132 14.4671 14.4377 14.4847 14.1668 14.448C13.8959 14.4113 13.635 14.3211 13.3992 14.1827C13.1635 14.0443 12.9576 13.8603 12.7936 13.6416C12.6295 13.4229 12.5106 13.1737 12.4438 12.9087L12.4446 12.9078ZM15.8821 3.74514C15.8416 3.66434 15.8175 3.57637 15.8111 3.48624C15.8046 3.39611 15.816 3.3056 15.8446 3.21988C15.8732 3.13416 15.9184 3.05491 15.9776 2.98667C16.0368 2.91842 16.1089 2.86253 16.1898 2.82217L17.5648 2.13467C17.6456 2.09427 17.7335 2.07018 17.8237 2.06377C17.9138 2.05737 18.0043 2.06877 18.09 2.09734C18.1757 2.12591 18.2549 2.17108 18.3232 2.23027C18.3914 2.28947 18.4473 2.36152 18.4877 2.44232C18.5281 2.52313 18.5522 2.6111 18.5586 2.70121C18.565 2.79133 18.5536 2.88182 18.5251 2.96753C18.4965 3.05323 18.4513 3.13247 18.3921 3.20072C18.3329 3.26897 18.2609 3.32489 18.1801 3.36529L16.8051 4.05279C16.7243 4.09325 16.6363 4.11739 16.5462 4.12383C16.4561 4.13026 16.3655 4.11887 16.2798 4.09029C16.1941 4.06172 16.1148 4.01653 16.0466 3.9573C15.9784 3.89808 15.9225 3.82598 15.8821 3.74514ZM19.9375 6.18748C19.9375 6.36982 19.8651 6.54469 19.7361 6.67362C19.6072 6.80255 19.4323 6.87498 19.25 6.87498H17.875C17.6927 6.87498 17.5178 6.80255 17.3889 6.67362C17.2599 6.54469 17.1875 6.36982 17.1875 6.18748C17.1875 6.00514 17.2599 5.83028 17.3889 5.70134C17.5178 5.57241 17.6927 5.49998 17.875 5.49998H19.25C19.4323 5.49998 19.6072 5.57241 19.7361 5.70134C19.8651 5.83028 19.9375 6.00514 19.9375 6.18748ZM2.82219 1.75482C2.86255 1.67398 2.91844 1.60188 2.98669 1.54266C3.05493 1.48343 3.13418 1.43824 3.2199 1.40967C3.30562 1.3811 3.39613 1.3697 3.48626 1.37613C3.57639 1.38257 3.66436 1.40671 3.74516 1.44717L5.12016 2.13467C5.20096 2.17507 5.27302 2.23099 5.33221 2.29924C5.3914 2.36749 5.43657 2.44673 5.46514 2.53243C5.49371 2.61814 5.50511 2.70863 5.49871 2.79875C5.49231 2.88886 5.46821 2.97683 5.42781 3.05764C5.38741 3.13844 5.33149 3.2105 5.26324 3.26969C5.19499 3.32888 5.11575 3.37405 5.03005 3.40262C4.85696 3.46031 4.66803 3.44689 4.50484 3.36529L3.12984 2.67779C3.049 2.63744 2.9769 2.58154 2.91768 2.5133C2.85845 2.44505 2.81326 2.36581 2.78469 2.28008C2.75612 2.19436 2.74472 2.10385 2.75115 2.01372C2.75759 1.92359 2.78173 1.83562 2.82219 1.75482ZM3.4375 6.18748H2.0625C1.88016 6.18748 1.7053 6.11505 1.57636 5.98612C1.44743 5.85719 1.375 5.68232 1.375 5.49998C1.375 5.31764 1.44743 5.14278 1.57636 5.01384C1.7053 4.88491 1.88016 4.81248 2.0625 4.81248H3.4375C3.61984 4.81248 3.7947 4.88491 3.92364 5.01384C4.05257 5.14278 4.125 5.31764 4.125 5.49998C4.125 5.68232 4.05257 5.85719 3.92364 5.98612C3.7947 6.11505 3.61984 6.18748 3.4375 6.18748Z" fill="#E95639"/>
</svg>
