<svg width="22" height="22" viewBox="0 0 22 22" fill="none" xmlns="http://www.w3.org/2000/svg">
<path d="M19.8455 18.2188C18.5367 15.956 16.5197 14.3335 14.1659 13.5644C15.3302 12.8713 16.2348 11.8151 16.7408 10.5581C17.2467 9.30113 17.3261 7.9128 16.9666 6.60634C16.6072 5.29988 15.8288 4.14753 14.7511 3.32625C13.6734 2.50497 12.3558 2.06018 11.0008 2.06018C9.64581 2.06018 8.32827 2.50497 7.25052 3.32625C6.17278 4.14753 5.39442 5.29988 5.03498 6.60634C4.67554 7.9128 4.7549 9.30113 5.26086 10.5581C5.76683 11.8151 6.67142 12.8713 7.83573 13.5644C5.48191 14.3327 3.46495 15.9552 2.15613 18.2188C2.10813 18.297 2.07629 18.3841 2.0625 18.4749C2.0487 18.5656 2.05322 18.6583 2.07579 18.7472C2.09837 18.8362 2.13854 18.9198 2.19393 18.993C2.24932 19.0662 2.31882 19.1276 2.39832 19.1735C2.47782 19.2194 2.56571 19.249 2.6568 19.2604C2.7479 19.2718 2.84036 19.2648 2.92872 19.2399C3.01709 19.215 3.09956 19.1726 3.17129 19.1153C3.24302 19.058 3.30255 18.9869 3.34636 18.9063C4.96542 16.1081 7.82714 14.4375 11.0008 14.4375C14.1745 14.4375 17.0362 16.1081 18.6553 18.9063C18.6991 18.9869 18.7586 19.058 18.8303 19.1153C18.9021 19.1726 18.9845 19.215 19.0729 19.2399C19.1613 19.2648 19.2537 19.2718 19.3448 19.2604C19.4359 19.249 19.5238 19.2194 19.6033 19.1735C19.6828 19.1276 19.7523 19.0662 19.8077 18.993C19.8631 18.9198 19.9033 18.8362 19.9258 18.7472C19.9484 18.6583 19.9529 18.5656 19.9391 18.4749C19.9253 18.3841 19.8935 18.297 19.8455 18.2188ZM6.18831 8.25002C6.18831 7.2982 6.47056 6.36775 6.99936 5.57634C7.52817 4.78493 8.27978 4.1681 9.15915 3.80385C10.0385 3.4396 11.0062 3.3443 11.9397 3.52999C12.8732 3.71568 13.7307 4.17403 14.4038 4.84707C15.0768 5.52011 15.5352 6.37761 15.7208 7.31115C15.9065 8.24468 15.8112 9.21231 15.447 10.0917C15.0827 10.9711 14.4659 11.7227 13.6745 12.2515C12.8831 12.7803 11.9526 13.0625 11.0008 13.0625C9.72488 13.0612 8.50159 12.5537 7.59937 11.6515C6.69715 10.7492 6.18968 9.52595 6.18831 8.25002Z" fill="#E95639"/>
</svg>
