<svg width="58" height="58" viewBox="0 0 58 58" fill="none" xmlns="http://www.w3.org/2000/svg">
<path d="M29 0.5625C23.3756 0.5625 17.8775 2.23033 13.201 5.35508C8.52446 8.47984 4.87956 12.9212 2.72719 18.1174C0.574822 23.3137 0.0116642 29.0315 1.10893 34.5479C2.2062 40.0642 4.91461 45.1313 8.89166 49.1083C12.8687 53.0854 17.9358 55.7938 23.4521 56.8911C28.9685 57.9883 34.6863 57.4252 39.8826 55.2728C45.0788 53.1205 49.5202 49.4755 52.6449 44.799C55.7697 40.1225 57.4375 34.6244 57.4375 29C57.4296 21.4604 54.4309 14.2318 49.0996 8.90044C43.7682 3.5691 36.5397 0.570462 29 0.5625ZM40.0879 30.7992L25.8692 40.643C25.5409 40.8699 25.1568 41.0028 24.7585 41.0272C24.3601 41.0515 23.9627 40.9664 23.6092 40.7811C23.2558 40.5958 22.9598 40.3173 22.7532 39.9758C22.5467 39.6343 22.4375 39.2428 22.4375 38.8438V19.1562C22.4375 18.7572 22.5467 18.3657 22.7532 18.0242C22.9598 17.6827 23.2558 17.4042 23.6092 17.2189C23.9627 17.0336 24.3601 16.9485 24.7585 16.9728C25.1568 16.9972 25.5409 17.13 25.8692 17.357L40.0879 27.2008C40.3789 27.402 40.6168 27.6709 40.7811 27.9842C40.9454 28.2976 41.0312 28.6462 41.0312 29C41.0312 29.3538 40.9454 29.7024 40.7811 30.0158C40.6168 30.3291 40.3789 30.598 40.0879 30.7992Z" fill="#E95639"/>
</svg>
