<svg width="22" height="22" viewBox="0 0 22 22" fill="none" xmlns="http://www.w3.org/2000/svg">
<path d="M19.4098 8.83609C19.0859 8.4975 18.7507 8.14859 18.6244 7.8418C18.5075 7.56078 18.5006 7.095 18.4937 6.64383C18.4809 5.80508 18.4671 4.85461 17.8062 4.19375C17.1454 3.53289 16.1949 3.51914 15.3562 3.50625C14.905 3.49937 14.4392 3.4925 14.1582 3.37562C13.8523 3.2493 13.5025 2.91414 13.1639 2.59016C12.5709 2.02039 11.8972 1.375 11 1.375C10.1028 1.375 9.42992 2.02039 8.83609 2.59016C8.4975 2.91414 8.14859 3.2493 7.8418 3.37562C7.5625 3.4925 7.095 3.49937 6.64383 3.50625C5.80508 3.51914 4.85461 3.53289 4.19375 4.19375C3.53289 4.85461 3.52344 5.80508 3.50625 6.64383C3.49937 7.095 3.4925 7.56078 3.37562 7.8418C3.2493 8.14773 2.91414 8.4975 2.59016 8.83609C2.02039 9.42992 1.375 10.1028 1.375 11C1.375 11.8972 2.02039 12.5701 2.59016 13.1639C2.91414 13.5025 3.2493 13.8514 3.37562 14.1582C3.4925 14.4392 3.49937 14.905 3.50625 15.3562C3.51914 16.1949 3.53289 17.1454 4.19375 17.8062C4.85461 18.4671 5.80508 18.4809 6.64383 18.4937C7.095 18.5006 7.56078 18.5075 7.8418 18.6244C8.14773 18.7507 8.4975 19.0859 8.83609 19.4098C9.42906 19.9796 10.1028 20.625 11 20.625C11.8972 20.625 12.5701 19.9796 13.1639 19.4098C13.5025 19.0859 13.8514 18.7507 14.1582 18.6244C14.4392 18.5075 14.905 18.5006 15.3562 18.4937C16.1949 18.4809 17.1454 18.4671 17.8062 17.8062C18.4671 17.1454 18.4809 16.1949 18.4937 15.3562C18.5006 14.905 18.5075 14.4392 18.6244 14.1582C18.7507 13.8523 19.0859 13.5025 19.4098 13.1639C19.9796 12.5701 20.625 11.8972 20.625 11C20.625 10.1028 19.9796 9.42992 19.4098 8.83609ZM18.4173 12.2126C18.0056 12.6423 17.5794 13.0866 17.3534 13.6323C17.1368 14.1565 17.1273 14.7555 17.1187 15.3355C17.1102 15.9371 17.1007 16.567 16.8334 16.8334C16.5662 17.0998 15.9405 17.1102 15.3355 17.1187C14.7555 17.1273 14.1565 17.1368 13.6323 17.3534C13.0866 17.5794 12.6423 18.0056 12.2126 18.4173C11.7829 18.8289 11.3438 19.25 11 19.25C10.6562 19.25 10.2137 18.8272 9.78742 18.4173C9.36117 18.0073 8.91344 17.5794 8.36773 17.3534C7.84352 17.1368 7.24453 17.1273 6.66445 17.1187C6.06289 17.1102 5.43297 17.1007 5.16656 16.8334C4.90016 16.5662 4.88984 15.9405 4.88125 15.3355C4.87266 14.7555 4.8632 14.1565 4.64664 13.6323C4.42062 13.0866 3.99437 12.6423 3.58273 12.2126C3.17109 11.7829 2.75 11.3438 2.75 11C2.75 10.6562 3.17281 10.2145 3.58273 9.78742C3.99266 9.36031 4.42062 8.91344 4.64664 8.36773C4.8632 7.84352 4.87266 7.24453 4.88125 6.66445C4.88984 6.06289 4.8993 5.43297 5.16656 5.16656C5.43383 4.90016 6.05945 4.88984 6.66445 4.88125C7.24453 4.87266 7.84352 4.8632 8.36773 4.64664C8.91344 4.42062 9.35773 3.99437 9.78742 3.58273C10.2171 3.17109 10.6562 2.75 11 2.75C11.3438 2.75 11.7863 3.17281 12.2126 3.58273C12.6388 3.99266 13.0866 4.42062 13.6323 4.64664C14.1565 4.8632 14.7555 4.87266 15.3355 4.88125C15.9371 4.88984 16.567 4.8993 16.8334 5.16656C17.0998 5.43383 17.1102 6.05945 17.1187 6.66445C17.1273 7.24453 17.1368 7.84352 17.3534 8.36773C17.5794 8.91344 18.0056 9.35773 18.4173 9.78742C18.8289 10.2171 19.25 10.6562 19.25 11C19.25 11.3438 18.8272 11.7855 18.4173 12.2126ZM10.3125 8.25C10.3125 7.84208 10.1915 7.44331 9.96491 7.10414C9.73828 6.76496 9.41616 6.5006 9.03928 6.3445C8.66241 6.18839 8.24771 6.14755 7.84763 6.22713C7.44754 6.30671 7.08004 6.50315 6.79159 6.79159C6.50315 7.08004 6.30671 7.44754 6.22713 7.84763C6.14755 8.24771 6.18839 8.66241 6.3445 9.03928C6.5006 9.41616 6.76496 9.73828 7.10414 9.96491C7.44331 10.1915 7.84208 10.3125 8.25 10.3125C8.79701 10.3125 9.32161 10.0952 9.70841 9.70841C10.0952 9.32161 10.3125 8.79701 10.3125 8.25ZM7.5625 8.25C7.5625 8.11403 7.60282 7.9811 7.67836 7.86805C7.75391 7.75499 7.86128 7.66687 7.98691 7.61483C8.11253 7.5628 8.25076 7.54918 8.38412 7.57571C8.51749 7.60224 8.63999 7.66772 8.73614 7.76386C8.83228 7.86001 8.89776 7.98251 8.92429 8.11588C8.95082 8.24924 8.9372 8.38747 8.88517 8.51309C8.83313 8.63872 8.74501 8.74609 8.63195 8.82164C8.5189 8.89718 8.38597 8.9375 8.25 8.9375C8.06766 8.9375 7.8928 8.86507 7.76386 8.73614C7.63493 8.6072 7.5625 8.43234 7.5625 8.25ZM13.75 11.6875C13.3421 11.6875 12.9433 11.8085 12.6041 12.0351C12.265 12.2617 12.0006 12.5838 11.8445 12.9607C11.6884 13.3376 11.6475 13.7523 11.7271 14.1524C11.8067 14.5525 12.0031 14.92 12.2916 15.2084C12.58 15.4969 12.9475 15.6933 13.3476 15.7729C13.7477 15.8525 14.1624 15.8116 14.5393 15.6555C14.9162 15.4994 15.2383 15.235 15.4649 14.8959C15.6915 14.5567 15.8125 14.1579 15.8125 13.75C15.8125 13.203 15.5952 12.6784 15.2084 12.2916C14.8216 11.9048 14.297 11.6875 13.75 11.6875ZM13.75 14.4375C13.614 14.4375 13.4811 14.3972 13.368 14.3216C13.255 14.2461 13.1669 14.1387 13.1148 14.0131C13.0628 13.8875 13.0492 13.7492 13.0757 13.6159C13.1022 13.4825 13.1677 13.36 13.2639 13.2639C13.36 13.1677 13.4825 13.1022 13.6159 13.0757C13.7492 13.0492 13.8875 13.0628 14.0131 13.1148C14.1387 13.1669 14.2461 13.255 14.3216 13.368C14.3972 13.4811 14.4375 13.614 14.4375 13.75C14.4375 13.9323 14.3651 14.1072 14.2361 14.2361C14.1072 14.3651 13.9323 14.4375 13.75 14.4375ZM14.9239 8.04891L8.04891 14.9239C7.98503 14.9878 7.9092 15.0385 7.82574 15.073C7.74228 15.1076 7.65283 15.1254 7.5625 15.1254C7.47217 15.1254 7.38272 15.1076 7.29926 15.073C7.2158 15.0385 7.13997 14.9878 7.07609 14.9239C7.01222 14.86 6.96155 14.7842 6.92698 14.7007C6.89241 14.6173 6.87462 14.5278 6.87462 14.4375C6.87462 14.3472 6.89241 14.2577 6.92698 14.1743C6.96155 14.0908 7.01222 14.015 7.07609 13.9511L13.9511 7.07609C14.015 7.01222 14.0908 6.96155 14.1743 6.92698C14.2577 6.89241 14.3472 6.87462 14.4375 6.87462C14.5278 6.87462 14.6173 6.89241 14.7007 6.92698C14.7842 6.96155 14.86 7.01222 14.9239 7.07609C14.9878 7.13997 15.0385 7.2158 15.073 7.29926C15.1076 7.38272 15.1254 7.47217 15.1254 7.5625C15.1254 7.65283 15.1076 7.74228 15.073 7.82574C15.0385 7.9092 14.9878 7.98503 14.9239 8.04891Z" fill="#E95639"/>
</svg>
