<svg width="36" height="36" viewBox="0 0 36 36" fill="none" xmlns="http://www.w3.org/2000/svg">
<rect x="0.5" y="0.5" width="35" height="35" rx="5.5" stroke="#E95639"/>
<path d="M17.031 21.9694C17.1008 22.039 17.1561 22.1217 17.1938 22.2128C17.2316 22.3038 17.251 22.4014 17.251 22.5C17.251 22.5985 17.2316 22.6961 17.1938 22.7872C17.1561 22.8782 17.1008 22.9609 17.031 23.0306L14.031 26.0306C13.9614 26.1003 13.8787 26.1557 13.7876 26.1934C13.6966 26.2311 13.599 26.2506 13.5004 26.2506C13.4019 26.2506 13.3043 26.2311 13.2132 26.1934C13.1222 26.1557 13.0394 26.1003 12.9698 26.0306L9.96979 23.0306C9.90011 22.9609 9.84483 22.8782 9.80712 22.7872C9.76941 22.6961 9.75 22.5985 9.75 22.5C9.75 22.4014 9.76941 22.3039 9.80712 22.2128C9.84483 22.1218 9.90011 22.039 9.96979 21.9694C10.1105 21.8286 10.3014 21.7496 10.5004 21.7496C10.599 21.7496 10.6965 21.769 10.7876 21.8067C10.8786 21.8444 10.9614 21.8997 11.031 21.9694L12.7504 23.6897V10.5C12.7504 10.3011 12.8294 10.1103 12.9701 9.96965C13.1107 9.829 13.3015 9.74998 13.5004 9.74998C13.6993 9.74998 13.8901 9.829 14.0307 9.96965C14.1714 10.1103 14.2504 10.3011 14.2504 10.5V23.6897L15.9698 21.9694C16.0394 21.8996 16.1222 21.8443 16.2132 21.8066C16.3043 21.7688 16.4019 21.7494 16.5004 21.7494C16.599 21.7494 16.6966 21.7688 16.7876 21.8066C16.8787 21.8443 16.9614 21.8996 17.031 21.9694ZM26.031 12.9694L23.031 9.96935C22.9614 9.89962 22.8787 9.8443 22.7876 9.80656C22.6966 9.76882 22.599 9.74939 22.5004 9.74939C22.4019 9.74939 22.3043 9.76882 22.2132 9.80656C22.1222 9.8443 22.0394 9.89962 21.9698 9.96935L18.9698 12.9694C18.8291 13.1101 18.75 13.301 18.75 13.5C18.75 13.699 18.8291 13.8899 18.9698 14.0306C19.1105 14.1713 19.3014 14.2504 19.5004 14.2504C19.6994 14.2504 19.8903 14.1713 20.031 14.0306L21.7504 12.3103V25.5C21.7504 25.6989 21.8294 25.8897 21.9701 26.0303C22.1107 26.171 22.3015 26.25 22.5004 26.25C22.6993 26.25 22.8901 26.171 23.0307 26.0303C23.1714 25.8897 23.2504 25.6989 23.2504 25.5V12.3103L24.9698 14.0306C25.1105 14.1713 25.3014 14.2504 25.5004 14.2504C25.6994 14.2504 25.8903 14.1713 26.031 14.0306C26.1718 13.8899 26.2508 13.699 26.2508 13.5C26.2508 13.301 26.1718 13.1101 26.031 12.9694Z" fill="#E95639"/>
</svg>
