<svg width="56" height="56" viewBox="0 0 56 56" fill="none" xmlns="http://www.w3.org/2000/svg">
<rect x="0.5" y="0.5" width="55" height="55" rx="27.5" fill="white"/>
<rect x="0.5" y="0.5" width="55" height="55" rx="27.5" stroke="#E95639"/>
<path d="M35.5 19H33.25V18.25C33.25 18.0511 33.171 17.8603 33.0303 17.7197C32.8897 17.579 32.6989 17.5 32.5 17.5C32.3011 17.5 32.1103 17.579 31.9697 17.7197C31.829 17.8603 31.75 18.0511 31.75 18.25V19H24.25V18.25C24.25 18.0511 24.171 17.8603 24.0303 17.7197C23.8897 17.579 23.6989 17.5 23.5 17.5C23.3011 17.5 23.1103 17.579 22.9697 17.7197C22.829 17.8603 22.75 18.0511 22.75 18.25V19H20.5C20.1022 19 19.7206 19.158 19.4393 19.4393C19.158 19.7206 19 20.1022 19 20.5V35.5C19 35.8978 19.158 36.2794 19.4393 36.5607C19.7206 36.842 20.1022 37 20.5 37H35.5C35.8978 37 36.2794 36.842 36.5607 36.5607C36.842 36.2794 37 35.8978 37 35.5V20.5C37 20.1022 36.842 19.7206 36.5607 19.4393C36.2794 19.158 35.8978 19 35.5 19ZM22.75 20.5V21.25C22.75 21.4489 22.829 21.6397 22.9697 21.7803C23.1103 21.921 23.3011 22 23.5 22C23.6989 22 23.8897 21.921 24.0303 21.7803C24.171 21.6397 24.25 21.4489 24.25 21.25V20.5H31.75V21.25C31.75 21.4489 31.829 21.6397 31.9697 21.7803C32.1103 21.921 32.3011 22 32.5 22C32.6989 22 32.8897 21.921 33.0303 21.7803C33.171 21.6397 33.25 21.4489 33.25 21.25V20.5H35.5V23.5H20.5V20.5H22.75ZM35.5 35.5H20.5V25H35.5V35.5ZM29.125 28.375C29.125 28.5975 29.059 28.815 28.9354 29C28.8118 29.185 28.6361 29.3292 28.4305 29.4144C28.225 29.4995 27.9988 29.5218 27.7805 29.4784C27.5623 29.435 27.3618 29.3278 27.2045 29.1705C27.0472 29.0132 26.94 28.8127 26.8966 28.5945C26.8532 28.3762 26.8755 28.15 26.9606 27.9445C27.0458 27.7389 27.19 27.5632 27.375 27.4396C27.56 27.316 27.7775 27.25 28 27.25C28.2984 27.25 28.5845 27.3685 28.7955 27.5795C29.0065 27.7905 29.125 28.0766 29.125 28.375ZM33.25 28.375C33.25 28.5975 33.184 28.815 33.0604 29C32.9368 29.185 32.7611 29.3292 32.5555 29.4144C32.35 29.4995 32.1238 29.5218 31.9055 29.4784C31.6873 29.435 31.4868 29.3278 31.3295 29.1705C31.1722 29.0132 31.065 28.8127 31.0216 28.5945C30.9782 28.3762 31.0005 28.15 31.0856 27.9445C31.1708 27.7389 31.315 27.5632 31.5 27.4396C31.685 27.316 31.9025 27.25 32.125 27.25C32.4234 27.25 32.7095 27.3685 32.9205 27.5795C33.1315 27.7905 33.25 28.0766 33.25 28.375ZM25 32.125C25 32.3475 24.934 32.565 24.8104 32.75C24.6868 32.935 24.5111 33.0792 24.3055 33.1644C24.1 33.2495 23.8738 33.2718 23.6555 33.2284C23.4373 33.185 23.2368 33.0778 23.0795 32.9205C22.9222 32.7632 22.815 32.5627 22.7716 32.3445C22.7282 32.1262 22.7505 31.9 22.8356 31.6945C22.9208 31.4889 23.065 31.3132 23.25 31.1896C23.435 31.066 23.6525 31 23.875 31C24.1734 31 24.4595 31.1185 24.6705 31.3295C24.8815 31.5405 25 31.8266 25 32.125ZM29.125 32.125C29.125 32.3475 29.059 32.565 28.9354 32.75C28.8118 32.935 28.6361 33.0792 28.4305 33.1644C28.225 33.2495 27.9988 33.2718 27.7805 33.2284C27.5623 33.185 27.3618 33.0778 27.2045 32.9205C27.0472 32.7632 26.94 32.5627 26.8966 32.3445C26.8532 32.1262 26.8755 31.9 26.9606 31.6945C27.0458 31.4889 27.19 31.3132 27.375 31.1896C27.56 31.066 27.7775 31 28 31C28.2984 31 28.5845 31.1185 28.7955 31.3295C29.0065 31.5405 29.125 31.8266 29.125 32.125ZM33.25 32.125C33.25 32.3475 33.184 32.565 33.0604 32.75C32.9368 32.935 32.7611 33.0792 32.5555 33.1644C32.35 33.2495 32.1238 33.2718 31.9055 33.2284C31.6873 33.185 31.4868 33.0778 31.3295 32.9205C31.1722 32.7632 31.065 32.5627 31.0216 32.3445C30.9782 32.1262 31.0005 31.9 31.0856 31.6945C31.1708 31.4889 31.315 31.3132 31.5 31.1896C31.685 31.066 31.9025 31 32.125 31C32.4234 31 32.7095 31.1185 32.9205 31.3295C33.1315 31.5405 33.25 31.8266 33.25 32.125Z" fill="#E95639"/>
</svg>
