<svg width="56" height="56" viewBox="0 0 56 56" fill="none" xmlns="http://www.w3.org/2000/svg">
<rect x="0.5" y="0.5" width="55" height="55" rx="27.5" fill="white"/>
<rect x="0.5" y="0.5" width="55" height="55" rx="27.5" stroke="#E95639"/>
<path d="M38.4225 25.1181C38.3287 24.8299 38.1517 24.5758 37.9138 24.3879C37.6759 24.2001 37.3877 24.0869 37.0856 24.0625L31.5543 23.6162L29.4187 18.4516C29.3032 18.1701 29.1066 17.9294 28.854 17.76C28.6013 17.5906 28.304 17.5001 27.9998 17.5001C27.6956 17.5001 27.3983 17.5906 27.1456 17.76C26.893 17.9294 26.6964 18.1701 26.5809 18.4516L24.4471 23.6153L18.9131 24.0625C18.6104 24.0881 18.3221 24.2024 18.0841 24.3912C17.8462 24.5799 17.6692 24.8347 17.5754 25.1236C17.4816 25.4125 17.4752 25.7226 17.5569 26.0152C17.6386 26.3077 17.8048 26.5696 18.0346 26.7681L22.2534 30.4084L20.9681 35.8516C20.8962 36.1473 20.9138 36.4577 21.0186 36.7434C21.1235 37.0291 21.3109 37.2771 21.557 37.4562C21.8031 37.6352 22.0968 37.737 22.4009 37.7488C22.705 37.7605 23.0058 37.6817 23.265 37.5222L27.9993 34.6084L32.7365 37.5222C32.9958 37.6798 33.2959 37.7571 33.5991 37.7445C33.9022 37.7318 34.1949 37.6298 34.4401 37.4512C34.6854 37.2726 34.8724 37.0254 34.9774 36.7407C35.0825 36.4561 35.101 36.1467 35.0306 35.8516L33.7406 30.4075L37.9593 26.7672C38.1911 26.569 38.3588 26.3065 38.4412 26.013C38.5237 25.7194 38.5172 25.408 38.4225 25.1181ZM36.9843 25.6309L32.4187 29.5684C32.3146 29.6582 32.2371 29.7748 32.1948 29.9056C32.1525 30.0364 32.1469 30.1763 32.1787 30.31L33.5737 36.1975C33.5773 36.2056 33.5777 36.2148 33.5747 36.2232C33.5717 36.2315 33.5657 36.2385 33.5578 36.2425C33.5409 36.2556 33.5362 36.2528 33.5221 36.2425L28.3921 33.0878C28.274 33.0152 28.138 32.9767 27.9993 32.9767C27.8606 32.9767 27.7247 33.0152 27.6065 33.0878L22.4765 36.2444C22.4625 36.2528 22.4587 36.2556 22.4409 36.2444C22.433 36.2403 22.4269 36.2334 22.424 36.225C22.421 36.2167 22.4213 36.2075 22.425 36.1994L23.82 30.3119C23.8517 30.1781 23.8462 30.0382 23.8039 29.9075C23.7615 29.7767 23.6841 29.66 23.58 29.5703L19.0143 25.6328C19.0031 25.6234 18.9928 25.615 19.0021 25.5859C19.0115 25.5569 19.019 25.5606 19.0331 25.5587L25.0256 25.075C25.163 25.0632 25.2946 25.0137 25.4057 24.932C25.5169 24.8503 25.6033 24.7395 25.6556 24.6119L27.9637 19.0234C27.9712 19.0075 27.974 19 27.9965 19C28.019 19 28.0218 19.0075 28.0293 19.0234L30.3431 24.6119C30.3958 24.7396 30.4828 24.8502 30.5945 24.9316C30.7062 25.013 30.8382 25.062 30.9759 25.0731L36.9684 25.5569C36.9825 25.5569 36.9909 25.5569 36.9993 25.5841C37.0078 25.6112 36.9993 25.6216 36.9843 25.6309Z" fill="#E95639"/>
</svg>
