<svg width="56" height="56" viewBox="0 0 56 56" fill="none" xmlns="http://www.w3.org/2000/svg">
<rect x="0.5" y="0.5" width="55" height="55" rx="27.5" fill="white"/>
<rect x="0.5" y="0.5" width="55" height="55" rx="27.5" stroke="#E95639"/>
<path d="M28 18.25C26.0716 18.25 24.1866 18.8218 22.5832 19.8932C20.9798 20.9645 19.7301 22.4873 18.9922 24.2688C18.2542 26.0504 18.0611 28.0108 18.4373 29.9021C18.8136 31.7934 19.7422 33.5307 21.1057 34.8943C22.4693 36.2579 24.2066 37.1865 26.0979 37.5627C27.9892 37.9389 29.9496 37.7458 31.7312 37.0078C33.5127 36.2699 35.0355 35.0202 36.1068 33.4168C37.1782 31.8134 37.75 29.9284 37.75 28C37.7473 25.415 36.7192 22.9366 34.8913 21.1087C33.0634 19.2808 30.585 18.2527 28 18.25ZM28 36.25C26.3683 36.25 24.7733 35.7661 23.4165 34.8596C22.0598 33.9531 21.0024 32.6646 20.378 31.1571C19.7536 29.6496 19.5902 27.9908 19.9085 26.3905C20.2269 24.7902 21.0126 23.3202 22.1664 22.1664C23.3202 21.0126 24.7902 20.2268 26.3905 19.9085C27.9909 19.5902 29.6497 19.7536 31.1571 20.378C32.6646 21.0024 33.9531 22.0598 34.8596 23.4165C35.7661 24.7733 36.25 26.3683 36.25 28C36.2475 30.1873 35.3775 32.2843 33.8309 33.8309C32.2843 35.3775 30.1873 36.2475 28 36.25ZM34 28C34 28.1989 33.921 28.3897 33.7803 28.5303C33.6397 28.671 33.4489 28.75 33.25 28.75H28C27.8011 28.75 27.6103 28.671 27.4697 28.5303C27.329 28.3897 27.25 28.1989 27.25 28V22.75C27.25 22.5511 27.329 22.3603 27.4697 22.2197C27.6103 22.079 27.8011 22 28 22C28.1989 22 28.3897 22.079 28.5303 22.2197C28.671 22.3603 28.75 22.5511 28.75 22.75V27.25H33.25C33.4489 27.25 33.6397 27.329 33.7803 27.4697C33.921 27.6103 34 27.8011 34 28Z" fill="#E95639"/>
</svg>
